<!DOCTYPE svg PUBLIC "-//W3C//DTD SVG 1.1//EN" "http://www.w3.org/Graphics/SVG/1.1/DTD/svg11.dtd">
<!-- Uploaded to: SVG Repo, www.svgrepo.com, Transformed by: SVG Repo Mixer Tools -->
<svg fill="#000000" xmlns="http://www.w3.org/2000/svg" width="800px" height="800px" viewBox="-5.2 -5.2 62.40 62.40" enable-background="new 0 0 52 52" xml:space="preserve">
<g id="SVGRepo_bgCarrier" stroke-width="0" transform="translate(0,0), scale(1)">
<path transform="translate(-5.2, -5.2), scale(3.9)" fill="#c8c8c8" d="M9.166.33a2.25 2.25 0 00-2.332 0l-5.25 3.182A2.25 2.25 0 00.5 5.436v5.128a2.25 2.25 0 001.084 1.924l5.25 3.182a2.25 2.25 0 002.332 0l5.25-3.182a2.25 2.25 0 001.084-1.924V5.436a2.25 2.25 0 00-1.084-1.924L9.166.33z" strokewidth="0"/>
</g>
<g id="SVGRepo_tracerCarrier" stroke-linecap="round" stroke-linejoin="round" stroke="#CCCCCC" stroke-width="4.4719999999999995"/>
<g id="SVGRepo_iconCarrier"> <path d="M44,2.5H19c-2.6,0-4.7,2.1-4.7,4.7V8c0,0.5,0.3,0.8,0.8,0.8h22.7c2.6,0,4.7,2.1,4.7,4.7v24.3 c0,0.5,0.3,0.8,0.8,0.8H44c2.6,0,4.7-2.1,4.7-4.7V7.2C48.7,4.6,46.6,2.5,44,2.5z"/> <path d="M33,13.5H8c-2.6,0-4.7,2.1-4.7,4.7v26.6c0,2.6,2.1,4.7,4.7,4.7H33c2.6,0,4.7-2.1,4.7-4.7V18.2 C37.8,15.6,35.6,13.5,33,13.5z M31,26.8l-12,12c-0.5,0.5-1,0.7-1.6,0.7c-0.5,0-1.2-0.2-1.6-0.7l-5.8-5.8c-0.5-0.5-0.5-1.2,0-1.6 l1.6-1.6c0.5-0.5,1.2-0.5,1.6,0l4.2,4.2l10.3-10.3c0.5-0.5,1.2-0.5,1.6,0l1.6,1.6C31.4,25.6,31.4,26.4,31,26.8z"/> </g>
</svg>